# File created by Blade
# Date/Time:  Thu Jan 22 16:25:48 2015
# Frame Rate: 120.000 fps
#------------------------------------------------------
:FULLY-SPECIFIED
:DEGREES
923
root 3.511267 38.152834 9.152714 28.875404 32.201440 23.626007
RightUpLeg -10.421449 -12.874129 -13.508370
RightLeg -11.588405 -0.000000 0.000000
RightFoot -5.809925 -20.473402 14.506362
RightToeBase 17.208520 -0.000000 -0.000000
LeftUpLeg -4.600190 -11.544137 -7.509880
LeftLeg 1.823691 -0.000000 -0.000000
LeftFoot -5.915364 10.469113 -23.605268
LeftToeBase -7.035963 -0.000000 0.000000
Spine 17.118935 -10.879125 0.245396
RightShoulder -0.290138 -24.246330 -20.404695
RightArm 37.431115 -36.741318 53.835213
RightForeArm 15.210714 -0.000000 39.409535
RightHand 5.853471 -0.000000 -1.956632
RightHandThumb1 -24.326973 -0.000000 -32.862282
LeftShoulder -26.305477 35.342120 -7.097819
LeftArm 37.124151 7.295275 -73.784805
LeftForeArm 24.870452 -0.000000 37.431369
LeftHand -16.431802 -0.000000 -9.435896
LeftHandThumb1 -26.253704 0.000000 33.147579
Head -19.289675 -17.297044 -3.310267
924
root 3.563137 38.145278 9.103398 28.181133 31.649258 23.134296
RightUpLeg -10.338542 -12.555727 -13.423341
RightLeg -11.465942 -0.000000 0.000000
RightFoot -5.653128 -20.235886 14.511041
RightToeBase 17.231517 -0.000000 -0.000000
LeftUpLeg -5.041386 -10.821726 -8.066631
LeftLeg 1.269078 -0.000000 -0.000000
LeftFoot -5.552599 8.943396 -22.760134
LeftToeBase -6.528282 -0.000000 0.000000
Spine 17.292439 -10.857630 0.040595
RightShoulder -0.280860 -24.113659 -20.487731
RightArm 37.601943 -36.374962 53.261122
RightForeArm 14.618020 -0.000000 39.761609
RightHand 5.820753 -0.000000 -1.693100
RightHandThumb1 -24.326973 -0.000000 -32.862282
LeftShoulder -26.220043 35.310055 -7.107867
LeftArm 37.223217 7.350361 -73.624670
LeftForeArm 24.797278 0.000000 38.421465
LeftHand -16.493002 -0.000000 -9.347757
LeftHandThumb1 -26.253704 0.000000 33.147579
Head -19.032423 -16.977749 -3.680104
925
root 3.617289 38.141856 9.047491 27.520083 31.074006 22.677707
RightUpLeg -10.328197 -12.393926 -13.319064
RightLeg -11.264012 -0.000000 0.000000
RightFoot -5.541972 -19.860268 14.597582
RightToeBase 17.393932 -0.000000 -0.000000
LeftUpLeg -5.444156 -10.601110 -8.634336
LeftLeg 0.745411 -0.000000 -0.000000
LeftFoot -5.529887 8.234402 -21.817870
LeftToeBase -5.900875 -0.000000 0.000000
Spine 17.462908 -10.836736 -0.199764
RightShoulder -0.302848 -23.893703 -20.541601
RightArm 37.582145 -35.899160 52.900292
RightForeArm 14.191126 -0.000000 40.146789
RightHand 5.769755 0.000000 -1.446417
RightHandThumb1 -24.326973 -0.000000 -32.862282
LeftShoulder -26.156424 35.247916 -7.058723
LeftArm 37.368206 7.373642 -73.615325
LeftForeArm 24.921079 -0.000000 39.266544
LeftHand -16.484637 -0.000000 -9.475752
LeftHandThumb1 -26.253704 0.000000 33.147579
Head -18.811200 -16.610336 -4.039490
926
root 3.666190 38.135860 8.999620 26.835444 30.546462 22.159667
RightUpLeg -10.293030 -11.964027 -13.208678
RightLeg -11.045130 -0.000000 0.000000
RightFoot -5.486476 -19.645790 14.745794
RightToeBase 17.284251 -0.000000 -0.000000
LeftUpLeg -5.967776 -10.165234 -9.161225
LeftLeg 0.657183 -0.000000 -0.000000
LeftFoot -5.721510 7.706286 -21.266289
LeftToeBase -5.855051 -0.000000 0.000000
Spine 17.589401 -10.903742 -0.358536
RightShoulder -0.244103 -23.651330 -20.652869
RightArm 37.388256 -35.285083 52.785032
RightForeArm 13.706667 -0.000000 40.569018
RightHand 5.650300 -0.000000 -1.320653
RightHandThumb1 -24.326973 -0.000000 -32.862282
LeftShoulder -26.119195 35.191553 -7.086809
LeftArm 37.453218 7.415155 -73.498912
LeftForeArm 25.071487 -0.000000 40.222458
LeftHand -16.651684 -0.000000 -9.496969
LeftHandThumb1 -26.253704 0.000000 33.147579
Head -18.549799 -16.201812 -4.498520
927
root 3.707459 38.126743 8.947192 26.219319 29.982390 21.617904
RightUpLeg -10.372458 -11.559029 -13.042384
RightLeg -10.804758 -0.000000 0.000000
RightFoot -5.478121 -19.437599 14.908542
RightToeBase 17.369037 -0.000000 -0.000000
LeftUpLeg -6.513524 -10.389195 -9.577503
LeftLeg 0.528714 -0.000000 -0.000000
LeftFoot -6.151824 8.210163 -21.084269
LeftToeBase -5.646155 -0.000000 0.000000
Spine 17.627660 -10.895660 -0.528043
RightShoulder -0.249837 -23.477508 -20.707979
RightArm 37.187355 -34.576396 52.731244
RightForeArm 13.272033 -0.000000 41.012825
RightHand 5.685707 -0.000000 -1.412988
RightHandThumb1 -24.326973 -0.000000 -32.862282
LeftShoulder -26.086186 35.136044 -7.038543
LeftArm 37.515084 7.448794 -73.449488
LeftForeArm 25.308992 0.000000 41.207757
LeftHand -16.699906 -0.000000 -9.646832
LeftHandThumb1 -26.253704 0.000000 33.147579
Head -18.310312 -15.748535 -4.843241
928
root 3.744385 38.112672 8.898416 25.559272 29.448655 21.023817
RightUpLeg -10.418187 -11.198135 -12.792909
RightLeg -10.587068 -0.000000 0.000000
RightFoot -5.431955 -19.214224 15.022963
RightToeBase 17.453386 -0.000000 -0.000000
LeftUpLeg -7.091286 -10.571881 -9.893567
LeftLeg 0.665756 -0.000000 -0.000000
LeftFoot -6.552000 8.566450 -21.084745
LeftToeBase -5.898719 -0.000000 0.000000
Spine 17.655957 -10.871668 -0.617278
RightShoulder -0.232289 -23.291432 -20.795596
RightArm 36.789456 -33.756048 52.918404
RightForeArm 12.942119 -0.000000 41.526023
RightHand 5.624547 -0.000000 -1.667065
RightHandThumb1 -24.326973 -0.000000 -32.862282
LeftShoulder -26.018422 35.103726 -6.963617
LeftArm 37.606511 7.569663 -73.338991
LeftForeArm 25.624659 -0.000000 42.201397
LeftHand -16.886206 -0.000000 -9.606944
LeftHandThumb1 -26.253704 0.000000 33.147579
Head -18.014857 -15.366929 -5.211006
929
root 3.779182 38.094965 8.854508 24.866338 28.956076 20.441456
RightUpLeg -10.377919 -10.798352 -12.559274
RightLeg -10.398700 -0.000000 0.000000
RightFoot -5.378558 -19.031477 15.119376
RightToeBase 17.471114 -0.000000 -0.000000
LeftUpLeg -7.627619 -11.032543 -10.078450
LeftLeg 0.934959 -0.000000 -0.000000
LeftFoot -6.803242 8.677079 -20.875983
LeftToeBase -6.823492 -0.000000 0.000000
Spine 17.730731 -10.891520 -0.732869
RightShoulder -0.215330 -23.106687 -20.854901
RightArm 36.332629 -32.847160 53.194981
RightForeArm 12.730029 -0.000000 42.083195
RightHand 5.558603 0.000000 -1.847031
RightHandThumb1 -24.326973 -0.000000 -32.862282
LeftShoulder -25.950062 35.073465 -6.834876
LeftArm 37.694876 7.705482 -73.228222
LeftForeArm 26.080773 -0.000000 43.221354
LeftHand -17.215653 -0.000000 -9.660951
LeftHandThumb1 -26.253704 0.000000 33.147579
Head -17.764113 -14.966663 -5.482919
930
root 3.808991 38.072182 8.817037 24.141426 28.477294 19.806018
RightUpLeg -10.290009 -10.225996 -12.311745
RightLeg -10.229451 -0.000000 0.000000
RightFoot -5.426016 -18.926849 15.358050
RightToeBase 17.576562 -0.000000 -0.000000
LeftUpLeg -8.131721 -11.582205 -10.113176
LeftLeg 1.307015 -0.000000 -0.000000
LeftFoot -7.000005 8.279918 -20.272921
LeftToeBase -7.095969 -0.000000 0.000000
Spine 17.795027 -10.872032 -0.802904
RightShoulder -0.194313 -22.920647 -20.892658
RightArm 35.716915 -31.842345 53.662624
RightForeArm 12.575986 -0.000000 42.687696
RightHand 5.543412 0.000000 -2.257980
RightHandThumb1 -24.326973 -0.000000 -32.862282
LeftShoulder -25.867141 35.073655 -6.646662
LeftArm 37.810376 7.818030 -73.196274
LeftForeArm 26.492581 -0.000000 44.189901
LeftHand -17.320071 -0.000000 -9.854888
LeftHandThumb1 -26.253704 0.000000 33.147579
Head -17.479814 -14.568097 -5.728718
931
root 3.837734 38.046189 8.782765 23.369809 28.042552 19.188620
RightUpLeg -10.118487 -9.723511 -12.045394
RightLeg -10.069889 -0.000000 0.000000
RightFoot -5.419575 -18.806794 15.438419
RightToeBase 17.587046 -0.000000 -0.000000
LeftUpLeg -8.601994 -12.191640 -10.069282
LeftLeg 1.860460 -0.000000 -0.000000
LeftFoot -7.022414 7.381177 -19.566182
LeftToeBase -7.127659 -0.000000 0.000000
Spine 17.925210 -10.895426 -0.894610
RightShoulder -0.182534 -22.770259 -20.911527
RightArm 35.111651 -30.786202 54.118410
RightForeArm 12.605109 -0.000000 43.369978
RightHand 5.446716 0.000000 -2.943903
RightHandThumb1 -24.326973 -0.000000 -32.862282
LeftShoulder -25.769107 35.075099 -6.436144
LeftArm 37.918495 7.934091 -73.113831
LeftForeArm 26.877431 -0.000000 45.242230
LeftHand -17.434950 -0.000000 -10.118679
LeftHandThumb1 -26.253704 0.000000 33.147579
Head -17.227819 -14.152034 -5.907158
932
root 3.867909 38.014225 8.762605 22.502690 27.609867 18.512633
RightUpLeg -9.879609 -9.291724 -11.698221
RightLeg -9.867853 -0.000000 0.000000
RightFoot -5.424404 -18.527880 15.445708
RightToeBase 17.525191 -0.000000 -0.000000
LeftUpLeg -9.010896 -12.529868 -9.967369
LeftLeg 2.613676 -0.000000 -0.000000
LeftFoot -7.027210 6.149083 -19.070142
LeftToeBase -6.709492 -0.000000 0.000000
Spine 18.097922 -10.897255 -0.946913
RightShoulder -0.140134 -22.592090 -20.950284
RightArm 34.380405 -29.637494 54.768698
RightForeArm 12.718656 -0.000000 44.040660
RightHand 5.469442 -0.000000 -3.441962
RightHandThumb1 -24.326973 -0.000000 -32.862282
LeftShoulder -25.668764 35.080461 -6.205177
LeftArm 38.028609 8.120723 -72.983199
LeftForeArm 27.378634 0.000000 46.263728
LeftHand -17.673202 -0.000000 -10.098968
LeftHandThumb1 -26.253704 0.000000 33.147579
Head -16.956544 -13.781920 -6.033678
933
root 3.899374 37.978882 8.750304 21.582106 27.163034 17.821014
RightUpLeg -9.405015 -8.500523 -11.433853
RightLeg -9.970742 -0.000000 0.000000
RightFoot -5.352446 -18.589981 15.614473
RightToeBase 17.441159 -0.000000 -0.000000
LeftUpLeg -9.215437 -13.167691 -9.774245
LeftLeg 3.178196 -0.000000 -0.000000
LeftFoot -7.100846 5.316017 -18.890882
LeftToeBase -6.331652 -0.000000 0.000000
Spine 18.318406 -10.938922 -1.026071
RightShoulder -0.038764 -22.429589 -20.989156
RightArm 33.639261 -28.430636 55.431300
RightForeArm 12.925096 -0.000000 44.792781
RightHand 5.500223 -0.000000 -4.011858
RightHandThumb1 -24.326973 -0.000000 -32.862282
LeftShoulder -25.637814 35.089424 -5.983523
LeftArm 38.122761 8.284140 -72.879530
LeftForeArm 27.808296 -0.000000 47.289688
LeftHand -17.790374 0.000000 -10.190464
LeftHandThumb1 -26.253704 0.000000 33.147579
Head -16.714645 -13.381961 -6.095928
